<svg width="22" height="22" viewBox="0 0 22 22" fill="none" xmlns="http://www.w3.org/2000/svg">
<g id="Group">
<g id="Group_2">
<path id="Vector" d="M17.4083 1.78318C18.9574 1.78318 20.2168 3.04255 20.2168 4.59169V17.4083C20.2168 18.9574 18.9574 20.2168 17.4083 20.2168H4.59169C3.04255 20.2168 1.78318 18.9574 1.78318 17.4083V4.59169C1.78318 3.04255 3.04255 1.78318 4.59169 1.78318H17.4083ZM17.4083 0H4.59169C2.05512 0 0 2.05512 0 4.59169V17.4083C0 19.9449 2.05512 22 4.59169 22H17.4083C19.9449 22 22 19.9427 22 17.4083V4.59169C22.0022 2.05512 19.9449 0 17.4083 0Z" fill="#B0B0B0"/>
</g>
<g id="Group_3">
<path id="Vector_2" d="M16.3793 12.1113C16.0405 12.1113 15.7641 12.3855 15.7641 12.7243V14.7883C15.7641 15.0536 15.5501 15.2676 15.2848 15.2676H6.70328C6.43803 15.2676 6.22405 15.0536 6.22405 14.7883V12.7243C6.22405 12.3855 5.94988 12.1113 5.60885 12.1113C5.27005 12.1113 4.99365 12.3855 4.99365 12.7243V14.7883C4.99365 15.7312 5.75819 16.4957 6.70105 16.4957H15.2804C16.2232 16.4957 16.9878 15.7312 16.9878 14.7883V12.7243C16.9945 12.3877 16.7181 12.1113 16.3793 12.1113Z" fill="#B0B0B0"/>
<path id="Vector_3" d="M10.5443 14.097C10.658 14.2241 10.8207 14.2954 10.9901 14.2954C11.1595 14.2954 11.3222 14.2241 11.4359 14.097L14.1062 11.1392C14.2645 10.9631 14.3046 10.7112 14.2088 10.4928C14.1129 10.2765 13.8967 10.1361 13.6604 10.1361H12.3988V8.54686C12.3988 8.21474 12.1314 7.94727 11.7992 7.94727H10.1788C9.84666 7.94727 9.57918 8.21474 9.57918 8.54686V10.1361H8.31758C8.08131 10.1361 7.8651 10.2765 7.76925 10.4928C7.67341 10.709 7.71353 10.9631 7.87179 11.1392L10.5443 14.097Z" fill="#B0B0B0"/>
<path id="Vector_4" d="M10.1824 7.22185H11.8028C12.1349 7.22185 12.4024 6.95437 12.4024 6.62226V6.07616C12.4024 5.74404 12.1349 5.47656 11.8028 5.47656H10.1824C9.85024 5.47656 9.58276 5.74404 9.58276 6.07616V6.62226C9.58276 6.95437 9.85247 7.22185 10.1824 7.22185Z" fill="#B0B0B0"/>
</g>
</g>
</svg>
