<svg width="18" height="19" viewBox="0 0 18 19" fill="none" xmlns="http://www.w3.org/2000/svg">
<g id="Group">
<path id="Vector" d="M17.7785 0.973246C17.6305 0.825227 17.4535 0.750734 17.2513 0.750734C17.0481 0.750734 16.873 0.825227 16.7241 0.973246L15.2004 2.48439C14.3646 1.69592 13.4069 1.08353 12.3293 0.650121C11.2516 0.216708 10.142 0 9.00149 0C6.85198 0 4.9772 0.650121 3.37523 1.95133C1.77325 3.25254 0.71881 4.9504 0.210938 7.04394V7.12617C0.210938 7.22679 0.247698 7.31482 0.322186 7.38932C0.395706 7.46381 0.484705 7.50057 0.585312 7.50057H2.91766C3.08888 7.50057 3.2069 7.4106 3.26882 7.23162C3.59676 6.44993 3.80377 5.9933 3.88987 5.86076C4.43741 4.96974 5.16391 4.27029 6.07034 3.76238C6.97677 3.25447 7.95285 3.00004 8.99956 3.00004C10.5696 3.00004 11.9336 3.53503 13.0906 4.60599L11.4731 6.22355C11.3251 6.37157 11.2506 6.54764 11.2506 6.7508C11.2506 6.95397 11.3251 7.12908 11.4731 7.27709C11.6211 7.42608 11.7972 7.49961 12.0004 7.49961H17.2503C17.4535 7.49961 17.6295 7.42608 17.7775 7.27709C17.9255 7.12908 18 6.953 18 6.7508V1.49953C18.001 1.29637 17.9275 1.12126 17.7785 0.973246Z" fill="#B0B0B0"/>
<path id="Vector_2" d="M17.3315 10.5039H15.0814C14.9092 10.5039 14.7922 10.5939 14.7302 10.7738C14.4023 11.5545 14.1953 12.0121 14.1082 12.1447C13.5617 13.0357 12.8352 13.7352 11.9287 14.2431C11.0223 14.751 10.0452 15.0044 8.99951 15.0044C8.24205 15.0044 7.51071 14.8642 6.80743 14.5826C6.10415 14.3011 5.47535 13.9025 4.92105 13.3859L6.52689 11.7809C6.6749 11.6319 6.74939 11.4559 6.74939 11.2537C6.74939 11.0505 6.6749 10.8744 6.52689 10.7264C6.37888 10.5774 6.20185 10.5039 5.99967 10.5039H0.749717C0.546568 10.5039 0.370505 10.5774 0.222497 10.7264C0.074488 10.8744 0 11.0505 0 11.2537V16.504C0 16.7071 0.074488 16.8832 0.222497 17.0312C0.371473 17.1793 0.547535 17.2537 0.749717 17.2537C0.952866 17.2537 1.12796 17.1793 1.27694 17.0312L2.78895 15.5191C3.62573 16.3163 4.57666 16.9296 5.64271 17.3592C6.70973 17.7887 7.8135 18.0035 8.95404 18.0035C11.0948 18.0035 12.9628 17.3534 14.5561 16.0522C16.1494 14.751 17.1961 13.0541 17.6972 10.9605C17.7049 10.9451 17.7088 10.917 17.7088 10.8783C17.7088 10.7767 17.672 10.6887 17.5976 10.6152C17.5211 10.5407 17.4321 10.5039 17.3315 10.5039Z" fill="#B0B0B0"/>
</g>
</svg>
