<svg width="20" height="23" viewBox="0 0 20 23" fill="none" xmlns="http://www.w3.org/2000/svg">
<path d="M19.9171 3.18699C16.8838 3.79444 13.0034 2.43836 9.99997 0C6.99659 2.43836 3.11188 3.79444 0.0828267 3.18699C0.0828267 3.18699 -1.57716 17.9156 9.96575 22.1249C9.9743 22.1292 10.0043 22.1378 10.0043 22.1378C10.0085 22.1335 10.0299 22.1292 10.0385 22.1249C21.5771 17.9156 19.9171 3.18699 19.9171 3.18699ZM2.05513 10.8186C1.43905 8.34177 1.36632 6.01463 1.38771 4.70989C2.68832 4.73556 4.06594 4.51739 5.48635 4.04683C7.03938 3.53777 8.59669 2.73781 9.99997 1.73252C11.4075 2.73781 12.9649 3.53349 14.5136 4.04683C15.934 4.51311 17.3116 4.73556 18.6122 4.70989C18.6336 6.01463 18.5566 8.34177 17.9448 10.8186C16.7298 15.7125 14.0601 19.0235 9.99997 20.6577C5.93985 19.0235 3.2659 15.7125 2.05513 10.8186Z" fill="#B0B0B0"/>
<path d="M6.12948 9.84904L5 10.9784L8.40127 14.375L14.6476 8.12935L13.5224 7L8.40127 12.1206L6.12948 9.84904Z" fill="#B0B0B0"/>
</svg>
